<svg width="1196" height="637" viewBox="0 0 1196 637" fill="none" xmlns="http://www.w3.org/2000/svg">
<path d="M1039.94 590.008C1049.59 597.072 1067.79 590.681 1076.85 584.49C1089.89 575.583 1095.26 559.636 1107.46 550.106C1116.97 542.678 1126.38 544.186 1136.97 541.325C1148.49 538.21 1157.73 529.863 1164.18 520.084C1172.77 507.083 1177.81 491.861 1187.58 479.718C1219.56 439.966 1298.67 447.278 1314.86 393.522C1318.82 380.358 1316.56 365.972 1306.69 355.964C1285.03 333.994 1248.32 343.009 1231.58 365.689C1223.99 375.958 1217.82 387.696 1207.49 395.232C1195.05 404.318 1178.63 405.8 1164.82 412.666C1138.7 425.649 1127.57 453.846 1118.58 479.657C1108.91 507.405 1083.43 517.446 1060.89 533.577C1042.69 546.604 1021.89 576.797 1039.94 590.009V590.008Z" fill="#CDD9F7"/>
<path d="M1295.51 -116.213C1278.38 -128.545 1256.8 -116.241 1245.57 -102.168C1237.94 -92.6179 1232.25 -81.7086 1225.16 -71.7815C1217.09 -60.4996 1207.73 -50.1177 1197.4 -40.8727C1185.47 -30.1979 1172.29 -21.4006 1158.26 -13.7613C1133.79 -0.44001 1098.55 19.8197 1094.26 50.5081C1090.3 78.8736 1132.21 85.1932 1151.76 79.4315C1188.41 68.6277 1215.44 30.947 1235.2 0.415558C1242.83 -11.3727 1250.4 -23.2337 1259.02 -34.3328C1267.62 -45.4061 1277.65 -54.5269 1287.64 -64.25C1300.48 -76.7322 1314.98 -102.2 1295.51 -116.211L1295.51 -116.213Z" fill="#7882F0"/>
<path d="M930.891 65.9644C939.105 71.5512 954.035 65.7217 961.376 60.3216C971.938 52.552 975.94 39.1592 985.791 30.8973C993.469 24.4574 1001.33 25.4385 1010.03 22.7584C1019.5 19.8414 1026.94 12.6456 1032.01 4.34197C1038.76 -6.69704 1042.51 -19.479 1050.27 -29.8402C1075.66 -63.76 1141.55 -59.9679 1153.43 -105.058C1156.34 -116.1 1154.05 -127.976 1145.57 -136C1126.95 -153.614 1096.74 -145.075 1083.49 -125.765C1077.5 -117.022 1072.71 -107.1 1064.36 -100.547C1054.29 -92.6464 1040.7 -90.9435 1029.43 -84.8465C1008.13 -73.3171 999.703 -49.5897 992.983 -27.9043C985.758 -4.5914 964.896 4.47757 946.656 18.517C931.926 29.8548 915.529 55.5173 930.891 65.9653L930.891 65.9644Z" fill="#CDD9F7"/>
<g clip-path="url(#clip0_13141_4188)">
<path d="M1225.02 631.787C1225.02 631.787 1157.93 558.355 1149.27 549.388C1138.36 538.085 1116.72 537.058 1116.72 537.058C1116.72 537.058 1124.72 535.722 1130.91 532.029C1137.1 528.34 1134.27 522.781 1131.57 520.27C1131.57 520.27 1138.15 514.043 1130.07 507.432C1121.99 500.819 1101.82 505.417 1087.16 508.71C1068.51 512.913 1055.64 536.496 1069.58 561.061C1081.85 582.667 1110.8 589.499 1110.8 589.499L1184.54 664.323C1184.54 664.323 1208.8 653.739 1225.01 631.789L1225.02 631.787Z" fill="#7882F0"/>
<path d="M1131.78 521.42C1129.4 523.067 1126.56 523.599 1123.73 522.988C1122.97 522.825 1123.29 521.666 1124.04 521.832C1126.58 522.376 1129.06 521.847 1131.19 520.377C1131.82 519.938 1132.41 520.985 1131.78 521.42Z" fill="#322864"/>
<path d="M1049.28 488.257C1064.1 475.867 1084.19 483.199 1084.19 483.199C1084.19 483.199 1088.08 462.168 1106.29 455.696C1124.49 449.225 1134.27 466.234 1135.4 480.029C1137.64 507.358 1115.8 538.527 1115.8 538.527C1115.8 538.527 1077.86 541.506 1055.45 525.693C1044.14 517.712 1034.46 500.643 1049.28 488.257Z" fill="#322864"/>
<path d="M1116.06 548.821C1116.06 548.821 1113.53 530.282 1111.08 523.373C1108.63 516.463 1103.33 512.69 1098 514.923C1092.67 517.16 1093.05 547.538 1093.05 547.538L1116.06 548.816L1116.06 548.821Z" fill="#7882F0"/>
<path d="M1093.36 538.533C1093.21 543.104 1092.91 547.667 1092.44 552.217C1092.37 552.98 1091.16 552.977 1091.24 552.205C1091.71 547.655 1092.01 543.092 1092.16 538.521C1092.18 537.753 1093.38 537.76 1093.36 538.533Z" fill="#322864"/>
<path d="M1091.84 547.01C1088.97 545.238 1086.04 543.56 1083.06 541.977C1082.37 541.614 1082.97 540.571 1083.66 540.935C1086.64 542.521 1089.57 544.198 1092.44 545.968C1093.1 546.373 1092.5 547.415 1091.84 547.01Z" fill="#322864"/>
<path d="M1115.47 538.895C1116.54 544.68 1117.61 550.473 1118.68 556.257C1118.82 557.014 1117.65 557.32 1117.51 556.556C1116.44 550.771 1115.37 544.978 1114.3 539.193C1114.16 538.436 1115.32 538.133 1115.47 538.895Z" fill="#322864"/>
<path d="M1140.02 553.333C1133.36 548.391 1124.78 547.195 1117.03 550.114C1116.31 550.387 1116.02 549.219 1116.73 548.948C1124.75 545.927 1133.74 547.183 1140.63 552.29C1141.24 552.749 1140.65 553.794 1140.02 553.333Z" fill="#322864"/>
</g>
<g clip-path="url(#clip1_13141_4188)">
<path d="M1086.12 411.444L1086.35 411.505C1087.47 411.842 1088.6 412.285 1089.65 412.809C1090.45 413.199 1091.24 413.619 1091.97 414.128C1093.92 415.418 1095.64 417.03 1097.05 418.908C1097.66 419.735 1098.2 420.609 1098.65 421.5C1099.48 422.975 1100.06 424.562 1100.41 426.225C1100.77 427.996 1100.88 429.801 1100.68 431.597C1100.64 432.391 1100.5 433.154 1100.3 433.904C1100.14 434.907 1099.84 435.872 1099.48 436.823L1099.47 436.857C1098.2 440.317 1096 443.459 1093.13 445.756C1092.4 446.396 1091.59 446.948 1090.73 447.448C1079.45 453.978 1063.88 447.716 1061.54 434.15C1060.8 429.766 1061.67 425.115 1063.81 421.158C1066.95 415.407 1072.27 411.744 1078.43 410.955C1079.98 410.743 1081.62 410.729 1083.25 410.886C1084.22 411.008 1085.19 411.163 1086.12 411.448L1086.12 411.445L1086.12 411.444Z" fill="#7882F0"/>
<path d="M1083.24 410.881C1081.62 410.725 1079.98 410.738 1078.43 410.95C1075.59 412.702 1073.19 415.196 1071.68 418.241C1069.85 421.799 1069.36 425.988 1070.15 430.668C1071.27 437.28 1076.13 442.869 1082.76 445.272C1086.28 446.527 1089.88 446.694 1093.13 445.748C1096 443.448 1098.2 440.306 1099.47 436.849C1098.69 438.101 1097.75 439.247 1096.63 440.201C1093.33 443.047 1088.55 443.754 1083.89 442.088C1078.4 440.129 1074.39 435.497 1073.44 430.081C1072.98 427.274 1073.04 424.708 1073.66 422.399C1073.91 421.455 1074.25 420.57 1074.68 419.743C1076.94 415.222 1081.55 412.166 1086.35 411.501L1086.12 411.44C1085.19 411.154 1084.22 410.999 1083.25 410.878L1083.24 410.881Z" fill="#322864"/>
<path d="M1101.44 429.55C1103.23 422.887 1099.29 416.043 1092.65 414.263C1086.01 412.483 1079.17 416.442 1077.39 423.105C1075.6 429.768 1079.54 436.613 1086.18 438.393C1092.83 440.173 1099.66 436.214 1101.44 429.55Z" fill="#B9C8F5"/>
<path d="M1158.1 385.814C1158.35 386.023 1158.6 386.265 1158.83 386.571C1159.49 387.374 1160.06 388.471 1160.39 389.568C1160.78 390.719 1160.95 391.912 1160.71 392.792L1160.71 392.826C1160.61 393.044 1160.52 393.264 1160.38 393.507C1158.5 396.001 1147.04 403.881 1134.93 411.828C1134.13 412.345 1133.29 412.888 1132.49 413.405C1131.51 414.052 1130.5 414.72 1129.51 415.325C1128.66 415.901 1127.77 416.464 1126.93 417.007C1125.21 418.113 1123.53 419.199 1121.89 420.258C1113.64 425.507 1106.7 429.857 1104.43 431.309C1102.93 432.265 1101.54 433.149 1100.3 433.896C1099.64 434.279 1099.03 434.635 1098.43 434.896L1098.38 434.95L1098.34 434.975C1094.63 436.876 1091.66 437.58 1088.37 436.382C1081.82 433.964 1079.01 426.165 1081.82 419.7C1082.7 417.6 1083.92 415.625 1085.85 414.644C1086.14 414.477 1086.45 414.353 1086.82 414.136L1086.86 414.111C1087.62 413.755 1088.57 413.314 1089.65 412.799C1095.59 409.961 1106.02 405.294 1116.68 400.655L1116.69 400.621C1131.34 394.223 1146.4 387.831 1150.92 386.29C1151.23 386.165 1151.61 386.055 1151.99 385.914C1152.33 385.797 1152.68 385.679 1153.06 385.538C1153.55 385.389 1154.08 385.25 1154.63 385.123C1155.87 384.93 1157.09 385.014 1158.1 385.808L1158.1 385.814Z" fill="#322864"/>
<path d="M1158.66 385.683C1158.89 385.85 1159.15 386.059 1159.35 386.322C1160.17 387.03 1160.85 388.014 1161.13 389.169C1161.41 390.219 1161.36 391.429 1160.72 392.789L1160.71 392.823C1160.62 393.041 1160.52 393.261 1160.39 393.504C1158.89 396.241 1147.16 403.942 1134.93 411.825C1134.13 412.342 1133.29 412.885 1132.49 413.402C1131.52 414.049 1130.51 414.717 1129.51 415.322C1128.66 415.898 1127.78 416.461 1126.94 417.004C1126.64 417.205 1125.3 416.773 1124.94 416.677C1124.25 416.528 1123.54 416.337 1122.85 416.049C1121.59 415.57 1120.42 414.873 1119.43 414.017C1118.81 413.468 1118.28 412.873 1117.8 412.185C1116.82 410.806 1116.14 409.192 1115.82 407.538C1115.48 405.425 1115.39 402.507 1116.69 400.659L1116.7 400.625C1131.34 394.227 1146.41 387.835 1150.92 386.293C1151.23 386.169 1151.61 386.058 1151.99 385.917C1152.34 385.801 1152.68 385.682 1153.07 385.541C1153.56 385.393 1154.08 385.254 1154.64 385.126C1156.11 384.825 1157.6 384.84 1158.66 385.681L1158.66 385.684L1158.66 385.683Z" fill="#7882F0"/>
<path d="M1098.88 421.018C1098.76 421.446 1098.48 421.829 1098.06 422.061L1087.49 427.838C1086.67 428.283 1085.66 427.985 1085.21 427.167C1084.77 426.353 1085.07 425.332 1085.89 424.883L1096.45 419.106C1097.27 418.661 1098.29 418.959 1098.73 419.777C1098.94 420.171 1098.98 420.616 1098.88 421.018Z" fill="white"/>
<path d="M1292.57 340.001C1294.47 339.811 1297.61 339.998 1301.79 340.509C1302.67 340.616 1303.46 340.003 1303.63 339.129L1303.64 339.096C1303.82 338.165 1303.14 337.286 1302.2 337.174C1297.73 336.633 1294.36 336.433 1292.26 336.641C1282.89 337.618 1276.97 341.402 1270.13 345.778C1264.81 349.165 1258.81 352.997 1249.86 356.285C1248.48 356.786 1246.99 357.293 1245.43 357.784C1243.31 358.435 1241.02 359.076 1238.55 359.707C1236.25 360.242 1233.78 360.765 1231.12 361.238C1227.83 361.821 1224.29 362.338 1220.45 362.774C1220.42 362.765 1220.41 362.798 1220.38 362.79C1218.73 362.976 1217.11 363.171 1215.57 363.349C1213.3 363.649 1211.16 363.982 1209.12 364.339C1206.43 364.771 1203.9 365.275 1201.53 365.794C1196.66 366.859 1192.41 368.055 1188.73 369.336C1186.78 369.997 1184.99 370.705 1183.35 371.382C1174.72 375.032 1169.56 378.986 1165.49 382.114C1163.22 383.84 1161.33 385.321 1159.36 386.327C1159.16 386.414 1159 386.511 1158.84 386.573C1158.32 386.818 1157.86 387.008 1157.32 387.178C1156.45 387.466 1155.98 388.422 1156.26 389.335C1156.55 390.216 1157.5 390.679 1158.38 390.39C1159.06 390.155 1159.76 389.89 1160.4 389.574C1160.64 389.462 1160.89 389.321 1161.14 389.179C1163.31 388.055 1165.33 386.5 1167.53 384.789C1172.08 381.302 1177.95 376.771 1188.87 372.863C1190.71 372.207 1192.69 371.584 1194.83 370.975C1198.9 369.798 1203.57 368.715 1208.93 367.78C1210.58 367.489 1212.27 367.244 1214.06 366.957C1214.16 366.95 1214.27 366.946 1214.41 366.913C1215.92 366.726 1217.55 366.498 1219.2 366.312C1219.74 366.249 1220.28 366.185 1220.85 366.126C1224.18 365.763 1227.28 365.339 1230.17 364.821C1232.74 364.43 1235.16 363.963 1237.42 363.419C1240.15 362.827 1242.69 362.18 1245.03 361.484C1246.62 361.002 1248.1 360.527 1249.53 360.002C1259.57 356.52 1266.16 352.321 1271.92 348.599C1278.66 344.306 1284.03 340.894 1292.57 340.012L1292.57 340.002L1292.57 340.001Z" fill="#322864"/>
</g>
<g clip-path="url(#clip2_13141_4188)">
<path d="M961.992 88.085C937.988 115.487 950.336 153.653 971.981 176.772C1002.73 209.611 1031.76 206.256 1051.41 192.952C1083.08 171.502 1067.48 148.401 1102.36 132.33C1126.36 121.267 1132.08 111.002 1132.83 100.994C1133.66 89.8902 1126.86 86.6222 1118.3 88.9627C1103.53 93.0039 1095.35 93.9725 1086.23 79.0748C1077.12 64.1727 1067.64 44.339 1073.81 25.8432C1079.97 7.34745 1080.85 6.88516 1078.54 3.47095C1076.22 0.056735 1060.99 -2.00896 1051.43 15.1522C1040.03 35.6402 1043.56 37.5878 1034.07 51.177C1024.58 64.7673 985.29 61.4912 961.989 88.0895L961.993 88.0885L961.992 88.085Z" fill="#7882F0"/>
<path d="M973.747 88.9986C962.35 101.593 958.295 119.363 961.284 135.908C964.873 155.781 978.119 172.478 994.205 184.05C995.453 184.947 997.031 183.126 995.768 182.219C980.233 171.041 967.202 154.973 963.69 135.747C960.774 119.794 964.58 102.72 975.579 90.5605C976.617 89.4138 974.788 87.8475 973.747 88.9986Z" fill="#322864"/>
<path d="M1071.93 54.7645C1073.88 63.4746 1076.06 71.724 1081.79 88.4183C1086.67 102.623 1102.43 107.018 1113.99 96.8889C1120.45 91.2417 1123.01 96.7031 1121.68 101.461C1120.35 106.219 1116.54 121.742 1089.52 132.507C1067.94 141.106 1072.41 154.852 1052.56 179.155C1042.58 191.376 1033.51 179.172 1034.67 163.75C1035.62 151.001 1022.88 135.326 1011.12 123.986C999.361 112.646 990.531 105.952 995.562 93.4238C1003.7 73.1374 1029.51 72.8579 1038.1 66.4587C1041.72 63.7634 1045.25 57.4309 1048.63 51.4228C1053.27 43.169 1057.3 36.299 1063.15 37.311C1069.07 38.3363 1070.86 49.9974 1071.93 54.7645Z" fill="#B9C8F5"/>
<path d="M1047.82 170.635C1045.89 171.004 1044.03 169.739 1043.66 167.812C1043.29 165.881 1044.56 164.019 1046.49 163.651C1048.42 163.283 1050.28 164.548 1050.65 166.475C1051.01 168.406 1049.75 170.268 1047.82 170.635Z" fill="white"/>
<path d="M1054.69 155.276C1052.76 155.645 1050.9 154.379 1050.53 152.452C1050.16 150.522 1051.43 148.659 1053.36 148.292C1055.29 147.924 1057.15 149.189 1057.52 151.116C1057.89 153.046 1056.62 154.909 1054.69 155.276Z" fill="white"/>
<path d="M1059.56 138.619C1057.62 138.987 1055.76 137.722 1055.39 135.795C1055.03 133.864 1056.29 132.002 1058.22 131.635C1060.15 131.266 1062.02 132.531 1062.38 134.459C1062.75 136.389 1061.48 138.251 1059.56 138.619Z" fill="white"/>
<path d="M1077.88 88.2492L1061.35 70.9355C1060.15 69.6783 1060.13 67.7023 1061.32 66.4275L1236.1 -122.172L1255.23 -104.941L1082.72 88.17C1081.44 89.6033 1079.21 89.6389 1077.88 88.2527L1077.88 88.2492Z" fill="#322864"/>
<path d="M1093.6 75.9929L1092 77.7824C1084.86 70.6664 1077.6 63.6765 1070.24 56.7932L1071.87 55.0269C1079.23 61.8983 1086.47 68.8878 1093.6 75.9929Z" fill="#7882F0"/>
<path d="M1105.96 62.1611L1104.35 63.957C1097.31 56.9144 1090.14 49.9929 1082.86 43.1692L1084.5 41.4087C1091.77 48.2161 1098.91 55.1333 1105.96 62.1611Z" fill="#7882F0"/>
<path d="M1122.82 43.2928L1121.21 45.0887C1114.27 38.1583 1107.22 31.3406 1100.06 24.6262L1101.69 22.8599C1108.84 29.558 1115.88 36.3752 1122.82 43.2928Z" fill="#7882F0"/>
<path d="M1140.87 23.0698L1139.27 24.8716C1132.46 18.0377 1125.54 11.315 1118.52 4.70293L1120.16 2.93114C1127.17 9.54172 1134.08 16.2501 1140.87 23.0663L1140.87 23.0698Z" fill="#7882F0"/>
<path d="M1158.78 3.02161L1157.18 4.81108C1150.5 -1.91305 1143.71 -8.5334 1136.82 -15.0534L1138.46 -16.8198C1145.33 -10.3061 1152.11 -3.6907 1158.78 3.02161Z" fill="#7882F0"/>
<path d="M1040.77 131.862L1023.11 111.516C1022.08 110.335 1022.21 108.543 1023.4 107.518L1023.76 107.203C1024.95 106.176 1026.74 106.303 1027.76 107.488L1045.42 127.835C1046.45 129.015 1046.32 130.808 1045.13 131.833L1044.77 132.147C1043.59 133.174 1041.79 133.047 1040.77 131.862Z" fill="#322864"/>
<path d="M1020.36 152.816L998.76 133.104C997.451 131.907 997.358 129.879 998.555 128.567L1006.83 119.509C1008.02 118.2 1010.05 118.106 1011.36 119.302L1032.97 139.014C1034.28 140.211 1034.37 142.239 1033.17 143.551L1024.9 152.609C1023.7 153.917 1021.68 154.011 1020.36 152.816Z" fill="#322864"/>
<path d="M1051.66 76.4361L1051.99 76.0813C1053.04 74.9262 1054.84 74.8465 1055.99 75.8981L1075.89 94.0557C1077.05 95.1098 1077.13 96.9066 1076.07 98.0573L1075.75 98.412C1074.7 99.5672 1072.9 99.6468 1071.75 98.5953L1051.85 80.4376C1050.69 79.3836 1050.61 77.5868 1051.66 76.4361Z" fill="#322864"/>
<path d="M1056.98 114.773L1037.08 96.6155C1035.93 95.5615 1035.85 93.7656 1036.9 92.6105L1037.22 92.2557C1038.28 91.1006 1040.08 91.0175 1041.23 92.0715L1061.13 110.229C1062.29 111.283 1062.37 113.079 1061.32 114.234L1060.99 114.589C1059.94 115.744 1058.14 115.827 1056.98 114.773Z" fill="#322864"/>
<path d="M1013.08 136.496C1046.3 100.621 1078.76 65.6674 1111.98 29.7918C1148.34 -9.47426 1184.69 -48.7413 1221.05 -88.0039C1238.62 -106.985 1256.2 -125.967 1273.77 -144.944C1274.82 -146.08 1272.99 -147.646 1271.94 -146.506C1238.72 -110.63 1205.5 -74.7545 1172.29 -38.8799C1135.94 0.386163 1099.58 39.6532 1063.22 78.9158C1045.65 97.8966 1028.83 115.956 1011.25 134.935C1010.2 136.07 1012.03 137.637 1013.08 136.496Z" fill="white"/>
<path d="M1009.11 132.665C1041.02 98.2046 1072.92 63.7405 1104.83 29.28C1139.29 -7.94404 1173.76 -45.1656 1208.23 -82.3896C1225.38 -100.913 1242.53 -119.437 1259.68 -137.964C1260.73 -139.1 1258.9 -140.666 1257.85 -139.526C1225.94 -105.065 1194.03 -70.6012 1162.12 -36.1406C1127.66 1.08337 1093.19 38.3049 1058.73 75.5289C1041.58 94.0522 1024.43 112.577 1007.28 131.103C1006.22 132.239 1008.05 133.805 1009.11 132.665Z" fill="white"/>
<path d="M1016.98 140.136C1051.58 102.763 1086.18 65.3915 1120.79 28.0222C1159.52 -13.8057 1198.25 -55.638 1236.98 -97.4659C1255.03 -116.961 1273.08 -136.453 1291.12 -155.948C1292.18 -157.084 1290.35 -158.65 1289.29 -157.51C1254.69 -120.137 1220.09 -82.7654 1185.48 -45.3961C1146.75 -3.56823 1108.02 38.2641 1069.29 80.092C1051.25 99.5872 1033.2 119.079 1015.15 138.574C1014.09 139.71 1015.92 141.276 1016.98 140.136Z" fill="white"/>
<path d="M1020.75 143.744C1056.79 104.823 1092.05 66.7065 1128.09 27.7853C1168.93 -16.3332 1209.78 -60.4517 1250.63 -104.568C1269.2 -124.614 1287.76 -144.663 1306.32 -164.71C1307.37 -165.846 1305.54 -167.412 1304.49 -166.272C1268.45 -127.351 1232.41 -88.4259 1196.37 -49.5057C1155.53 -5.38727 1114.68 38.7312 1073.83 82.8472C1055.26 102.894 1037.49 122.135 1018.93 142.181C1017.87 143.317 1019.7 144.883 1020.76 143.743L1020.75 143.744Z" fill="white"/>
</g>
<path d="M261.181 505.932C253.087 500.002 237.813 505.367 230.214 510.564C219.28 518.041 214.77 531.428 204.536 539.427C196.561 545.663 188.662 544.396 179.783 546.799C170.12 549.413 162.366 556.42 156.951 564.629C149.752 575.542 145.521 588.321 137.327 598.514C110.5 631.884 44.1282 625.746 30.5525 670.871C27.2285 681.921 29.1259 693.998 37.4038 702.399C55.5752 720.841 86.3693 713.274 100.418 694.235C106.779 685.615 111.959 675.761 120.619 669.435C131.061 661.808 144.837 660.564 156.42 654.801C178.326 643.902 187.668 620.233 195.213 598.565C203.324 575.272 224.699 566.843 243.603 553.302C258.869 542.367 276.32 517.022 261.181 505.931L261.181 505.932Z" fill="#CDD9F7"/>
<path d="M105.514 425.458C88.3785 413.126 66.8027 425.43 55.5679 439.504C47.9454 449.054 42.2532 459.963 35.1571 469.89C27.0901 481.172 17.7294 491.554 7.39999 500.799C-4.52734 511.474 -17.7134 520.271 -31.7393 527.91C-56.207 541.231 -91.4532 561.491 -95.737 592.18C-99.6956 620.545 -57.7885 626.865 -38.2411 621.103C-1.58878 610.299 25.4384 572.618 45.2034 542.087C52.8352 530.299 60.4015 518.438 69.0206 507.339C77.6187 496.265 87.6462 487.145 97.6434 477.421C110.479 464.939 124.984 439.471 105.512 425.461L105.514 425.458Z" fill="#7882F0"/>
<path d="M-86.9526 390.442C-78.8203 396.14 -63.8163 390.519 -56.4043 385.222C-45.7396 377.602 -41.5536 364.271 -31.5927 356.148C-23.8294 349.817 -15.9873 350.906 -7.25035 348.347C2.25756 345.562 9.78545 338.472 14.9739 330.243C21.8717 319.302 25.7943 306.577 33.6913 296.328C59.5472 262.774 125.353 267.473 137.853 222.568C140.913 211.571 138.785 199.668 130.42 191.531C112.056 173.669 81.7401 181.788 68.2327 200.906C62.1165 209.562 57.195 219.413 48.7559 225.848C38.5812 233.606 24.9746 235.121 13.6314 241.06C-7.82023 252.29 -16.5738 275.89 -23.5911 297.473C-31.1353 320.676 -52.1128 329.453 -70.5386 343.234C-85.4186 354.364 -102.163 379.788 -86.9525 390.443L-86.9526 390.442Z" fill="#CDD9F7"/>
<g clip-path="url(#clip3_13141_4188)">
<path d="M-24.8287 609.379C-25.3609 608.471 -24.943 607.31 -23.9501 606.964C-13.6434 603.377 36.7919 585.623 76.9258 568.043C136.468 541.956 181.943 515.776 196.025 507.419C196.496 507.139 197.02 506.979 197.561 506.935L201.087 506.66C201.464 506.633 201.804 506.872 201.902 507.236L203.931 514.837C204.067 515.346 203.862 515.892 203.421 516.184L194.34 521.886C194.34 521.886 196.468 535.712 198.357 554.628C199.843 569.506 200.789 575.27 200.06 586.298C200.384 601.601 170.431 609.848 169.086 610.363C157.065 614.979 126.419 626.863 74.8171 633.913C26.9357 640.454 2.92401 636.112 -3.87229 634.441C-5.20747 634.111 -6.4218 633.426 -7.39113 632.447C-10.4614 629.33 -17.9043 621.224 -24.8287 609.379Z" fill="#B9C8F5"/>
<path d="M185.895 513.307C190.216 510.834 193.662 508.818 196.135 507.35C196.606 507.069 197.129 506.909 197.67 506.866L201.197 506.59C201.574 506.564 201.914 506.802 202.011 507.167L204.041 514.767C204.177 515.276 203.972 515.822 203.531 516.115L194.45 521.817C194.45 521.817 196.578 535.642 198.467 554.558C199.952 569.437 200.118 571.216 200.399 578.859C201.684 596.497 192.547 598.782 191.201 599.296C189.855 599.81 190.314 593.073 192.933 592.959C207.121 592.319 185.897 513.314 185.897 513.314L185.895 513.307Z" fill="#7882F0"/>
<path d="M4.05185 597.522C-3.41069 592.825 -10.4801 587.506 -17.0465 581.622C-20.1735 578.823 -23.1808 575.892 -26.0699 572.848C-26.5871 572.299 -27.4161 573.133 -26.8926 573.68C-17.9284 583.116 -7.78744 591.43 3.21866 598.39C3.45529 598.064 3.73344 597.768 4.05185 597.522Z" fill="#322864"/>
<path d="M20.0351 534.838C30.3595 545.707 42.2421 555.091 55.2143 562.623C58.8438 564.729 62.5628 566.69 66.3489 568.499C67.0284 568.822 67.6145 567.811 66.935 567.487C53.4887 561.058 40.9764 552.724 29.8812 542.78C26.7543 539.981 23.7469 537.05 20.8578 534.006C20.3406 533.457 19.5116 534.291 20.0351 534.838Z" fill="#322864"/>
<path d="M10.7773 301.715C18.1182 314.336 27.5008 325.794 38.5536 335.352C41.5959 337.985 44.7669 340.47 48.0525 342.802C48.6674 343.237 49.2518 342.219 48.6386 341.791C36.9321 333.47 26.6991 323.094 18.3916 311.397C16.0353 308.076 13.8338 304.653 11.7871 301.129C11.4104 300.476 10.3961 301.069 10.7727 301.722L10.7773 301.715Z" fill="#322864"/>
<path d="M1.28188 354.133C5.83887 341.106 8.98898 327.608 10.7921 313.937C11.3165 309.968 11.7221 305.984 12.0187 301.995C12.0733 301.24 10.8996 301.237 10.8433 301.986C9.81369 315.827 7.42242 329.567 3.60829 342.927C2.55793 346.592 1.40605 350.231 0.149306 353.83C-0.0986855 354.542 1.03389 354.845 1.27727 354.141L1.28188 354.133Z" fill="#322864"/>
<path d="M-26.8157 571.997C-57.5888 486.92 -32.652 454.738 -23.8638 399.493L14.3834 537.881L-26.8141 572.003L-26.8157 571.997Z" fill="#CDD9F7"/>
<path d="M22.3262 557.96L18.641 558.775L-27.8686 387.703C-28.023 387.125 -27.6688 386.533 -27.0832 386.403C-26.5354 386.284 -25.9918 386.603 -25.8412 387.142L22.3262 557.96Z" fill="#322864"/>
<path d="M14.5349 536.051L15.3042 539.513L-26.2524 574.613C-27.1535 575.378 -28.5461 574.909 -28.7994 573.759C-28.9252 573.186 -28.7259 572.595 -28.2799 572.22L14.5365 536.057L14.5349 536.051Z" fill="#322864"/>
<path d="M-25.7762 391.296C-21.7859 400.964 -17.673 410.585 -13.4394 420.154C-9.04675 430.091 -4.51612 439.964 0.139943 449.777C4.85472 459.709 9.71381 469.575 14.7281 479.366C19.7001 489.074 24.8255 498.701 30.139 508.224C35.2997 517.478 40.6312 526.64 46.1771 535.67C46.8578 536.78 47.5448 537.888 48.2381 538.995C48.6382 539.635 49.6463 539.043 49.2525 538.401C43.7053 529.493 38.3726 520.453 33.2214 511.311C27.8803 501.836 22.7208 492.258 17.7212 482.598C12.6842 472.873 7.81508 463.07 3.07597 453.199C-1.61744 443.423 -6.16821 433.575 -10.5919 423.674C-14.8994 414.03 -19.086 404.334 -23.1439 394.591C-23.6459 393.392 -24.1416 392.192 -24.6356 390.999C-24.9195 390.314 -26.0555 390.604 -25.7683 391.301L-25.7746 391.303L-25.7762 391.296Z" fill="#322864"/>
<path d="M49.7055 341.923C49.838 342.419 49.5648 342.936 49.0795 343.113L27.3619 350.897L26.8487 348.975L48.4123 341.246C48.9606 341.052 49.5562 341.364 49.7055 341.923Z" fill="#322864"/>
<path d="M-24.7021 391.434C-18.3466 380.8 -12.1874 370.038 -6.82606 358.862C-1.39588 347.54 3.17188 335.816 6.54919 323.724C8.63356 316.256 10.2691 308.673 11.5024 301.023C11.622 300.284 10.4924 299.967 10.3744 300.712C8.25251 313.895 4.88392 326.854 0.225888 339.375C-4.04989 350.88 -9.39237 361.95 -15.2751 372.713C-18.622 378.835 -22.1363 384.86 -25.7143 390.849C-26.1007 391.498 -25.0885 392.082 -24.7021 391.434Z" fill="#322864"/>
<path d="M20.2025 533.521C-24.636 390.999 5.51322 386.44 14.0677 312.598L72.6431 494.169L20.2042 533.527L20.2025 533.521Z" fill="#CDD9F7"/>
<path d="M86.8228 528.739L82.89 529.789L8.56354 296.047C8.40922 295.57 8.69033 295.058 9.18114 294.926C9.6342 294.805 10.0994 295.058 10.2516 295.502L86.829 528.738L86.8228 528.739Z" fill="#322864"/>
<path d="M72.8025 492.04L73.7904 495.74L21.0145 535.881C20.0123 536.647 18.5513 536.148 18.2259 534.93C18.0414 534.239 18.2953 533.498 18.8666 533.063L72.8025 492.04Z" fill="#322864"/>
<path d="M27.3618 350.897L-0.164028 355.838C-0.672871 355.927 -1.16741 355.615 -1.29991 355.119C-1.44919 354.56 -1.08837 353.992 -0.516605 353.887L26.8423 348.977L27.3555 350.899L27.3618 350.897Z" fill="#322864"/>
<path d="M12.9701 596.285L5.48451 568.251C4.99475 566.417 5.76555 564.482 7.38487 563.477L53.4154 535.009C54.6702 534.23 56.0403 533.655 57.4754 533.299L113.127 519.556C114.703 519.169 118.977 518.566 123.399 522.782L144.784 541.646C144.784 541.646 91.5713 566.393 66.8961 577.188C42.2145 587.984 12.9748 596.277 12.9748 596.277L12.9685 596.278L12.9701 596.285Z" fill="#7882F0"/>
<path d="M65.1974 567.87L19.4367 587.377C17.8564 588.048 16.0514 587.171 15.6086 585.512L11.3786 569.671C11.0482 568.433 11.5949 567.123 12.7146 566.495L50.783 544.991C52.0654 544.265 53.6984 544.65 54.5184 545.878L66.4424 563.722C67.4209 565.19 66.8263 567.179 65.199 567.876L65.1974 567.87Z" fill="#322864"/>
<path d="M125.674 539.152L80.7411 553.25C79.8828 553.519 78.9541 553.222 78.4185 552.504L69.2147 540.252C68.3163 539.058 68.9134 537.331 70.3606 536.944L115.018 525.02C115.773 524.818 116.57 525.05 117.105 525.613L126.584 535.693C127.649 536.828 127.162 538.688 125.674 539.152Z" fill="#322864"/>
<path d="M10.4291 301.168C19.6571 315.783 29.2777 330.151 39.2716 344.251C49.3495 358.464 59.8007 372.409 70.603 386.078C81.6809 400.098 93.1209 413.832 104.901 427.274C116.827 440.886 129.089 454.192 141.67 467.198C154.475 480.441 167.602 493.375 181.016 505.997C182.709 507.59 184.409 509.182 186.112 510.766C186.66 511.279 187.491 510.452 186.935 509.934C173.418 497.36 160.177 484.476 147.27 471.282C134.642 458.376 122.32 445.173 110.333 431.665C98.5498 418.385 87.0872 404.818 75.9849 390.96C64.9439 377.179 54.2523 363.117 43.953 348.782C33.8928 334.786 24.2059 320.523 14.9037 306.009C13.7461 304.199 12.5948 302.386 11.4481 300.566C11.0497 299.932 10.0336 300.52 10.4338 301.16L10.4275 301.162L10.4291 301.168Z" fill="#322864"/>
<path d="M57.6777 538.198C63.6649 546.76 69.6458 555.324 75.633 563.886C77.3325 566.313 79.0274 568.747 80.7269 571.173C81.1535 571.786 82.1695 571.198 81.7413 570.579C75.7541 562.017 69.7731 553.453 63.7859 544.891C62.0864 542.464 60.3915 540.03 58.6921 537.604C58.2655 536.991 57.2495 537.579 57.6777 538.198Z" fill="#322864"/>
<path d="M119.812 520.28L59.2265 536.828C58.2512 537.089 57.3144 537.494 56.441 538.01L5.47795 568.253C4.98986 566.425 5.76528 564.481 7.37999 563.485L53.4088 535.011C54.6716 534.236 56.0417 533.662 57.4705 533.307L113.122 519.564C114.698 519.177 117.461 518.923 119.812 520.28Z" fill="#7882F0"/>
<path d="M197.05 581.442C193.415 583.079 189.78 584.689 186.111 586.247C170.171 593.048 153.921 599.143 137.444 604.512C120.91 609.896 104.143 614.561 87.2024 618.473C70.3135 622.377 53.2536 625.539 36.0872 627.949C21.6429 629.976 7.12524 631.45 -7.4209 632.414C-7.41125 632.425 -7.40161 632.436 -7.39364 632.44C-6.43061 633.421 -5.2083 634.111 -3.87312 634.441C2.92318 636.112 26.9395 640.446 74.8146 633.906C126.137 626.898 190.833 608.095 197.869 593.7C197.911 587.444 197.488 587.678 197.05 581.442Z" fill="#322864"/>
<path d="M186.257 513.102L189.419 524.943C122.678 562.999 50.7179 590.646 -23.3314 611.858C-23.8305 611.05 -24.3266 610.227 -24.8215 609.383C-25.3537 608.475 -24.9329 607.3 -23.9336 606.952C-13.6034 603.353 36.8083 585.612 76.9297 568.035C126.391 546.355 166.151 524.622 186.262 513.094L186.256 513.096L186.257 513.102Z" fill="#7882F0"/>
<path d="M188.09 521.785C190.308 532.033 192.337 542.332 193.932 552.7C195.483 562.75 196.628 572.867 197.07 583.032C197.306 588.46 196.943 588.26 196.694 593.69C196.66 594.446 197.834 594.449 197.869 593.699C198.318 583.815 198.256 579.545 197.286 569.704C196.272 559.417 194.68 549.189 192.791 539.035C191.695 533.163 190.499 527.319 189.237 521.485C189.081 520.746 187.942 521.051 188.105 521.788L188.092 521.791L188.09 521.785Z" fill="#322864"/>
<path d="M13.0146 594.226C29.3239 588.304 45.4877 581.962 61.501 575.284C77.5973 568.563 93.5461 561.492 109.297 554.008C117.708 550.013 126.061 545.898 134.338 541.629C135.007 541.282 134.415 540.276 133.744 540.617C118.747 548.349 103.499 555.597 88.0993 562.502C72.1221 569.668 55.9826 576.454 39.6904 582.871C30.7428 586.397 21.7508 589.808 12.711 593.089C12.0041 593.346 12.2997 594.478 13.0129 594.22L13.0146 594.226Z" fill="#322864"/>
<path d="M188.954 522.14C192.351 520.244 195.755 518.352 199.152 516.456C199.81 516.092 199.222 515.078 198.558 515.443C195.161 517.34 191.757 519.231 188.36 521.127C187.702 521.491 188.29 522.505 188.954 522.14Z" fill="#322864"/>
<path d="M198.8 516.55C200.261 516.368 201.723 516.186 203.19 516.003C203.504 515.966 203.781 515.765 203.783 515.421C203.788 515.137 203.521 514.791 203.201 514.829C201.739 515.011 200.278 515.193 198.81 515.376C198.496 515.413 198.22 515.614 198.217 515.958C198.212 516.242 198.48 516.588 198.8 516.55Z" fill="#322864"/>
<path d="M188.708 522.583C190.436 522.438 192.165 522.299 193.893 522.154C194.21 522.13 194.481 521.909 194.485 521.572C194.487 521.275 194.22 520.956 193.903 520.98C192.175 521.125 190.446 521.264 188.719 521.409C188.402 521.433 188.13 521.654 188.126 521.991C188.124 522.288 188.391 522.607 188.708 522.583Z" fill="#322864"/>
<path d="M30.4023 514.439C34.2591 498.941 38.1078 483.439 41.9645 467.941C43.0485 463.594 44.1262 459.249 45.2102 454.901C45.3915 454.167 44.2652 453.862 44.0823 454.59C40.2255 470.088 36.3768 485.59 32.5201 501.088C31.4361 505.435 30.3584 509.78 29.2744 514.127C29.0931 514.862 30.2194 515.167 30.4023 514.439Z" fill="#7882F0"/>
<path d="M30.4604 480.145C34.04 467.043 36.9296 453.755 39.1002 440.349C39.7126 436.559 40.2697 432.763 40.7714 428.961C40.8688 428.215 39.6951 428.213 39.596 428.952C37.8252 442.365 35.3404 455.68 32.1597 468.837C31.2692 472.52 30.3199 476.185 29.3279 479.841C29.1306 480.567 30.2586 480.878 30.4558 480.153L30.4604 480.145Z" fill="#7882F0"/>
<path d="M-15.7332 549.961C-13.2729 538.423 -10.8189 526.886 -8.35869 515.348C-7.66662 512.108 -6.97622 508.862 -6.28415 505.622C-6.1297 504.888 -7.25765 504.577 -7.4121 505.311C-9.87236 516.849 -12.3263 528.386 -14.7866 539.924C-15.4786 543.163 -16.169 546.41 -16.8611 549.649C-17.0156 550.384 -15.8876 550.695 -15.7332 549.961Z" fill="#7882F0"/>
<path d="M126.127 576.014C127.224 579.187 125.753 582.386 122.839 583.164C119.926 583.942 116.678 582.003 115.581 578.83C114.485 575.657 115.956 572.458 118.87 571.68C121.783 570.902 125.031 572.841 126.127 576.014Z" fill="#322864"/>
<path d="M105.161 583.961C106.176 586.907 104.812 589.875 102.106 590.598C99.4005 591.32 96.3854 589.521 95.3697 586.576C94.3541 583.63 95.7185 580.662 98.4243 579.939C101.13 579.217 104.145 581.016 105.161 583.961Z" fill="#322864"/>
<path d="M85.6249 591.533C86.6075 594.38 85.2904 597.248 82.6791 597.945C80.0677 598.643 77.1562 596.903 76.1674 594.059C75.1848 591.212 76.5019 588.344 79.1133 587.646C81.7246 586.949 84.6361 588.688 85.6249 591.533Z" fill="#322864"/>
<path d="M-7.99577 618.571C1.72602 616.278 11.4193 613.878 21.082 611.338C30.4929 608.865 39.8783 606.272 49.2206 603.542C54.4303 602.023 59.6283 600.46 64.8083 598.854C65.5235 598.63 65.2279 597.497 64.5063 597.724C55.2862 600.583 46.0275 603.297 36.7306 605.894C27.2638 608.537 17.7664 611.039 8.23253 613.43C2.7363 614.81 -2.77797 616.148 -8.296 617.446C-9.03096 617.622 -8.72905 618.753 -7.9941 618.577L-7.99577 618.571Z" fill="#322864"/>
<path d="M123.771 581.603C119.433 581.692 116.25 576.337 118.779 572.681C119.207 572.062 118.189 571.479 117.767 572.096C114.738 576.479 118.59 582.879 123.76 582.777C124.512 582.765 124.522 581.591 123.771 581.603Z" fill="#0037F5"/>
<path d="M102.86 589.03C99.0531 588.909 96.3286 584.26 98.4084 580.966C98.8107 580.327 97.7986 579.743 97.3962 580.382C94.8323 584.438 98.1926 590.054 102.85 590.203C103.606 590.231 103.616 589.057 102.86 589.03Z" fill="#0037F5"/>
<path d="M83.3909 596.369C79.7834 596.189 77.2271 591.791 79.1591 588.651C79.5535 588.007 78.5414 587.423 78.147 588.066C75.7278 591.983 78.9195 597.321 83.3807 597.543C84.1379 597.576 84.1435 596.411 83.3909 596.369Z" fill="#0037F5"/>
<path d="M163.516 562.922C163.549 563.095 163.461 563.219 163.258 563.293C163.245 563.297 163.176 563.315 163.055 563.368C162.933 563.414 162.776 563.483 162.585 563.574C162.393 563.666 162.179 563.77 161.937 563.902C161.696 564.033 161.452 564.179 161.207 564.346C161.284 564.635 161.361 564.924 161.425 565.216C161.496 565.507 161.553 565.794 161.608 566.076C161.721 566.651 161.785 567.219 161.808 567.785C161.823 568.347 161.773 568.865 161.649 569.335C161.525 569.806 161.315 570.205 161.026 570.538C160.73 570.866 160.329 571.081 159.823 571.182C159.529 571.24 159.252 571.24 158.994 571.181C158.735 571.122 158.511 571.014 158.31 570.866C158.108 570.718 157.943 570.527 157.806 570.294C157.672 570.067 157.576 569.81 157.523 569.535C157.452 569.17 157.451 568.76 157.521 568.318C157.592 567.875 157.744 567.41 157.98 566.93C158.216 566.45 158.538 565.967 158.948 565.481C159.357 564.994 159.867 564.529 160.476 564.083L160.189 563.009C160.095 562.631 160.012 562.269 159.943 561.911C159.909 561.732 159.874 561.526 159.837 561.286C159.8 561.047 159.768 560.8 159.741 560.525C159.709 560.251 159.681 559.969 159.654 559.666C159.627 559.364 159.6 559.062 159.57 558.747C159.431 559.74 159.244 560.631 159.002 561.415C158.766 562.198 158.487 562.872 158.166 563.435C157.844 563.999 157.485 564.445 157.087 564.773C156.685 565.109 156.255 565.318 155.788 565.409C155.378 565.492 155.007 565.49 154.677 565.416C154.347 565.343 154.061 565.204 153.811 565.002C153.562 564.799 153.349 564.533 153.188 564.206C153.02 563.881 152.899 563.502 152.813 563.081C152.702 562.512 152.645 561.895 152.634 561.225C152.63 560.553 152.631 559.873 152.647 559.176C152.658 558.762 152.667 558.342 152.675 557.917C152.684 557.497 152.652 557.101 152.584 556.743C152.505 556.347 152.381 555.983 152.194 555.663C152.014 555.341 151.782 555.08 151.51 554.869C151.239 554.659 150.932 554.519 150.58 554.438C150.228 554.357 149.844 554.359 149.426 554.437C148.9 554.537 148.428 554.737 148 555.026C147.578 555.314 147.229 555.676 146.95 556.094C146.679 556.516 146.482 556.993 146.38 557.518C146.271 558.045 146.276 558.595 146.39 559.171C146.455 559.517 146.571 559.849 146.712 560.175C146.853 560.501 147.051 560.791 147.28 561.039C147.509 561.294 147.778 561.492 148.082 561.646C148.391 561.792 148.735 561.869 149.123 561.859C149.204 561.858 149.27 561.881 149.338 561.93C149.398 561.981 149.442 562.043 149.456 562.12C149.478 562.202 149.458 562.281 149.404 562.356C149.356 562.43 149.294 562.473 149.21 562.489C149.154 562.504 149.038 562.501 148.866 562.487C148.702 562.477 148.502 562.436 148.283 562.373C148.064 562.31 147.829 562.212 147.569 562.072C147.317 561.938 147.073 561.754 146.84 561.513C146.607 561.273 146.394 560.98 146.205 560.626C146.01 560.275 145.869 559.848 145.768 559.343C145.631 558.653 145.626 558.002 145.744 557.385C145.863 556.768 146.086 556.217 146.407 555.727C146.728 555.238 147.131 554.828 147.628 554.493C148.125 554.158 148.671 553.932 149.281 553.816C149.786 553.715 150.265 553.715 150.703 553.813C151.14 553.912 151.525 554.092 151.862 554.345C152.193 554.6 152.476 554.928 152.708 555.317C152.934 555.707 153.099 556.148 153.195 556.634C153.229 556.813 153.259 557 153.276 557.191C153.3 557.379 153.306 557.58 153.3 557.783C153.302 558.22 153.293 558.667 153.279 559.121C153.26 559.577 153.252 560.03 153.25 560.475C153.247 560.92 153.254 561.348 153.278 561.766C153.302 562.184 153.344 562.569 153.417 562.92C153.482 563.239 153.572 563.525 153.682 563.785C153.798 564.043 153.95 564.258 154.129 564.425C154.311 564.599 154.53 564.715 154.778 564.784C155.032 564.851 155.329 564.852 155.667 564.782C156.288 564.657 156.838 564.268 157.318 563.594C157.801 562.927 158.205 561.991 158.537 560.786C158.664 560.328 158.77 559.842 158.854 559.322C158.937 558.801 159.007 558.278 159.059 557.766C159.109 557.248 159.154 556.758 159.183 556.286C159.212 555.814 159.235 555.398 159.247 555.038C159.257 554.672 159.267 554.38 159.27 554.164C159.271 553.941 159.268 553.828 159.272 553.82C159.271 553.739 159.294 553.673 159.338 553.614C159.383 553.555 159.448 553.517 159.518 553.505C159.613 553.48 159.694 553.505 159.761 553.555C159.828 553.604 159.873 553.673 159.887 553.75C159.892 553.769 159.9 553.874 159.901 554.055C159.911 554.241 159.919 554.475 159.932 554.774C159.944 555.074 159.96 555.412 159.976 555.799C159.991 556.185 160.014 556.596 160.033 557.022C160.05 557.34 160.075 557.71 160.11 558.118C160.138 558.528 160.184 558.953 160.226 559.386C160.274 559.817 160.321 560.249 160.382 560.677C160.442 561.105 160.505 561.492 160.57 561.837C160.629 562.131 160.697 562.436 160.776 562.758L161.028 563.701C161.234 563.565 161.448 563.433 161.668 563.321C161.885 563.202 162.094 563.099 162.285 563.008C162.476 562.917 162.646 562.844 162.792 562.785C162.938 562.726 163.043 562.691 163.106 562.674C163.213 562.646 163.302 562.649 163.377 562.703C163.452 562.757 163.497 562.826 163.516 562.922ZM160.66 564.747C160.179 565.091 159.774 565.469 159.427 565.884C159.085 566.298 158.806 566.716 158.601 567.134C158.389 567.554 158.249 567.962 158.171 568.353C158.095 568.75 158.088 569.102 158.151 569.414C158.191 569.613 158.252 569.791 158.348 569.948C158.437 570.105 158.553 570.236 158.684 570.349C158.82 570.454 158.974 570.527 159.147 570.568C159.32 570.61 159.502 570.608 159.7 570.569C159.994 570.51 160.241 570.398 160.432 570.232C160.624 570.066 160.777 569.857 160.887 569.613C161.003 569.366 161.081 569.103 161.124 568.809C161.167 568.515 161.189 568.22 161.189 567.917C161.189 567.614 161.169 567.31 161.131 567.017C161.092 566.718 161.046 566.448 161 566.198C160.95 565.962 160.901 565.726 160.844 565.486C160.78 565.247 160.729 565.005 160.67 564.758L160.666 564.746L160.66 564.747Z" fill="#322864" stroke="#322864" stroke-width="0.5" stroke-linecap="round" stroke-linejoin="round"/>
<path d="M180.518 542.73C180.485 542.806 180.433 542.867 180.355 542.901C180.342 542.904 180.323 542.909 180.3 542.922C180.269 542.931 180.209 542.96 180.115 543.012C180.015 543.066 179.893 543.139 179.75 543.237C179.608 543.336 179.456 543.471 179.302 543.626C179.149 543.788 179.005 543.981 178.865 544.214C178.723 544.44 178.614 544.712 178.529 545.024C178.444 545.336 178.391 545.693 178.376 546.094C178.362 546.495 178.409 546.947 178.51 547.451C178.558 547.708 178.645 548.061 178.772 548.512C178.895 548.97 179.05 549.474 179.219 550.034C179.389 550.595 179.576 551.191 179.778 551.823C179.981 552.455 180.186 553.074 180.393 553.671C180.595 554.277 180.795 554.849 180.987 555.39C181.178 555.931 181.342 556.392 181.492 556.776C181.512 556.851 181.518 556.924 181.492 557.005C181.473 557.084 181.421 557.145 181.351 557.184C181.28 557.223 181.203 557.236 181.127 557.23C181.051 557.223 180.988 557.186 180.93 557.121C180.731 556.905 180.45 556.61 180.074 556.239C179.699 555.868 179.271 555.451 178.796 554.986C178.321 554.52 177.806 554.032 177.258 553.519C176.71 553.006 176.168 552.491 175.629 551.989C175.091 551.487 174.578 551.005 174.078 550.546C173.584 550.086 173.145 549.678 172.768 549.328C172.892 549.638 173.017 549.981 173.148 550.37C173.279 550.759 173.399 551.185 173.515 551.645C173.638 552.104 173.743 552.6 173.837 553.127C173.932 553.66 174.013 554.217 174.076 554.806C174.163 555.711 174.147 556.537 174.026 557.269C173.9 558.009 173.711 558.665 173.455 559.245C173.198 559.825 172.903 560.334 172.554 560.771C172.212 561.205 171.867 561.58 171.524 561.887C171.182 562.194 170.863 562.44 170.563 562.628C170.263 562.816 170.029 562.952 169.857 563.039C169.275 563.335 168.707 563.527 168.139 563.625C167.572 563.723 167.045 563.716 166.545 563.613C166.046 563.511 165.596 563.315 165.201 563.023C164.807 562.732 164.488 562.346 164.249 561.878C164.033 561.451 163.927 561.002 163.931 560.536C163.935 560.071 164.029 559.615 164.214 559.175C164.4 558.735 164.664 558.335 165.003 557.962C165.341 557.589 165.733 557.289 166.191 557.06C166.565 556.872 166.92 556.737 167.257 556.66C167.594 556.584 167.9 556.543 168.189 556.539C168.478 556.536 168.733 556.556 168.969 556.607C169.203 556.652 169.4 556.707 169.573 556.775C169.746 556.844 169.875 556.897 169.971 556.952L170.146 557.053C170.188 557.082 170.22 557.128 170.248 557.181C170.287 557.251 170.29 557.338 170.267 557.431C170.245 557.525 170.189 557.593 170.1 557.637C169.987 557.695 169.87 557.685 169.757 557.615C169.747 557.604 169.653 557.555 169.488 557.465C169.324 557.38 169.097 557.313 168.811 557.255C168.528 557.203 168.194 557.191 167.806 557.227C167.418 557.263 166.995 557.397 166.538 557.626C166.163 557.814 165.832 558.064 165.537 558.371C165.241 558.679 165.021 559.014 164.86 559.373C164.7 559.732 164.611 560.106 164.6 560.492C164.588 560.879 164.673 561.247 164.849 561.603C165.046 561.988 165.31 562.294 165.653 562.519C165.996 562.744 166.373 562.892 166.798 562.967C167.22 563.036 167.671 563.03 168.14 562.945C168.609 562.86 169.079 562.701 169.543 562.47C169.722 562.382 169.955 562.245 170.232 562.07C170.515 561.894 170.812 561.667 171.134 561.385C171.451 561.106 171.765 560.766 172.076 560.367C172.381 559.969 172.649 559.507 172.877 558.975C173.106 558.443 173.275 557.839 173.385 557.164C173.494 556.489 173.506 555.725 173.423 554.886C173.339 554.014 173.213 553.213 173.037 552.479C172.867 551.744 172.687 551.092 172.495 550.525C172.303 549.957 172.129 549.485 171.955 549.108C171.786 548.729 171.66 548.459 171.577 548.3L171.494 548.14C171.452 548.058 171.449 547.971 171.465 547.879C171.489 547.792 171.544 547.723 171.634 547.679C171.764 547.611 171.891 547.631 172.012 547.733C172.047 547.764 172.155 547.863 172.342 548.035C172.523 548.209 172.764 548.427 173.059 548.698C173.354 548.97 173.693 549.283 174.072 549.639C174.456 549.994 174.86 550.371 175.291 550.774C175.723 551.177 176.163 551.591 176.622 552.02C177.08 552.449 177.531 552.874 177.965 553.29C178.406 553.704 178.831 554.108 179.232 554.499C179.639 554.888 180.005 555.248 180.334 555.571C180.18 555.121 180.013 554.647 179.844 554.141C179.675 553.634 179.504 553.121 179.332 552.602C179.166 552.081 179.003 551.572 178.842 551.07C178.681 550.568 178.541 550.094 178.41 549.652C178.278 549.209 178.164 548.809 178.064 548.459C177.97 548.107 177.893 547.818 177.847 547.595C177.728 547.075 177.671 546.558 177.682 546.044C177.693 545.53 177.78 545.049 177.934 544.59C178.088 544.132 178.322 543.72 178.634 543.347C178.945 542.975 179.342 542.667 179.828 542.416C180.011 542.32 180.154 542.275 180.261 542.273C180.363 542.273 180.447 542.338 180.506 542.457L180.518 542.501C180.56 542.584 180.553 542.66 180.522 542.742L180.518 542.73Z" fill="#322864" stroke="#322864" stroke-width="0.5" stroke-linecap="round" stroke-linejoin="round"/>
<path d="M166.918 565.237L166.934 570.219" stroke="#322864" stroke-width="1.25" stroke-linecap="round" stroke-linejoin="round"/>
<path d="M166.858 547.313L166.884 555.112" stroke="#322864" stroke-width="1.25" stroke-linecap="round" stroke-linejoin="round"/>
</g>
<g clip-path="url(#clip4_13141_4188)">
<path d="M299.637 522.74L303.61 524.307C304.057 524.483 304.562 524.263 304.738 523.814L304.83 523.581C305.006 523.132 304.786 522.626 304.339 522.45L300.367 520.883C299.92 520.706 299.414 520.927 299.238 521.375L299.146 521.609C298.97 522.057 299.19 522.563 299.637 522.74Z" fill="#322864"/>
<path d="M290.425 517.77C290.825 516.994 291.206 516.211 291.591 515.424C265.381 504.746 190.141 473.803 176.291 467.742C174.732 467.06 172.923 467.805 172.292 469.386C172.283 469.404 172.278 469.423 172.27 469.442C171.665 470.957 172.368 472.682 173.861 473.335C181.318 476.602 259.441 509.008 288.749 520.912C289.301 519.861 289.888 518.823 290.429 517.767L290.428 517.77L290.425 517.77Z" fill="#7882F0"/>
<path d="M278.699 519.096C277.788 518.718 276.713 518.268 275.489 517.762C272.573 516.557 268.823 515.011 264.488 513.222C258.472 510.745 251.334 507.811 243.748 504.7C240.543 503.383 237.261 502.035 233.951 500.671C221.351 495.497 208.335 490.158 197.687 485.786C193.925 484.235 190.457 482.81 187.417 481.554C182.281 479.437 178.349 477.808 176.206 476.909C174.964 476.385 174.36 475.002 174.837 473.765C175.526 471.964 176.429 469.593 177.12 467.733C177.622 466.383 179.177 465.729 180.525 466.293C185.966 468.579 202.571 475.397 221.058 482.976C224.57 484.421 228.157 485.887 231.74 487.359C237.847 489.86 243.966 492.37 249.781 494.758C254.489 496.691 259.006 498.543 263.15 500.242C271.904 503.837 279.032 506.771 282.961 508.403C283.273 508.537 284.729 509.371 286.717 510.567C288.455 511.62 290.595 512.938 292.731 514.299C297.7 517.47 302.646 520.846 302.418 521.49C301.758 523.326 302.09 522.289 301.392 524.183C300.894 525.53 280.05 519.654 278.705 519.097L278.699 519.096Z" fill="#7882F0"/>
<path d="M215.978 477.967C215.494 476.8 213.821 476.365 212.791 475.949C211.234 475.322 209.641 474.792 208.053 474.25C201.352 471.948 195.211 468.553 188.753 465.687C184.981 464.012 178.337 462.269 177.055 468.031C176.84 469 178.311 469.518 178.528 468.533C180.179 461.096 193.648 469.74 197.189 471.444C200.151 472.867 203.149 474.186 206.25 475.28C207.69 475.789 209.141 476.256 210.576 476.78C211.199 477.007 212.624 477.343 213.132 477.778L213.132 477.781C212.309 478.298 211.589 479.187 211.535 479.926C211.419 481.447 213.159 481.798 214.237 481.268C215.445 480.673 216.532 479.306 215.978 477.97L215.978 477.967Z" fill="#7882F0"/>
<path d="M275.49 517.762C274.52 517.362 273.463 516.924 272.316 516.454C270.959 515.892 269.478 515.283 267.897 514.631C266.806 514.18 265.669 513.711 264.485 513.225C264.316 512.063 264.555 510.893 265.424 509.938C267.359 507.801 271.007 508.355 271.703 511.263C271.797 511.68 271.861 512.101 271.885 512.517C272.635 512.106 273.457 511.819 274.293 511.689C275.622 511.491 277.294 511.582 278.13 512.81C278.897 513.922 278.48 515.203 277.69 516.169C277.238 516.723 276.42 517.327 275.484 517.758L275.49 517.759L275.49 517.762Z" fill="#322864"/>
<path d="M180.802 466.757C180.726 466.09 179.706 466.286 179.783 466.947C180.187 470.48 178.388 473.484 176.26 476.139C175.844 476.66 176.706 477.234 177.122 476.716C179.439 473.825 181.236 470.568 180.802 466.754L180.802 466.757Z" fill="#322864"/>
<path d="M215.168 481.12C215.092 480.453 214.073 480.649 214.149 481.31C214.553 484.844 212.755 487.848 210.626 490.502C210.21 491.024 211.073 491.598 211.489 491.079C213.805 488.188 215.602 484.932 215.168 481.117L215.168 481.12Z" fill="#322864"/>
<path d="M226.576 490.699C225.686 489.882 225.195 488.718 224.937 487.486C223.513 488.347 221.601 488.565 220.531 487.09C219.416 485.55 219.961 484.087 221.053 482.973C222.289 483.481 223.542 483.996 224.79 484.512C226.098 485.049 227.416 485.584 228.727 486.125C229.732 486.535 230.726 486.948 231.731 487.358C231.944 488.424 231.863 489.47 231.336 490.265C230.199 491.967 228.009 492.028 226.573 490.698L226.576 490.699Z" fill="#322864"/>
<path d="M243.749 504.701C242.456 504.168 241.145 503.634 239.825 503.088C238.702 502.631 237.574 502.166 236.44 501.698C235.612 501.357 234.785 501.016 233.951 500.675C233.76 499.216 234.565 497.644 235.852 496.733C237.552 495.537 240.071 495.735 240.383 498.182C240.45 498.707 240.329 499.374 240.084 500.025C240.285 500.007 240.491 500.011 240.688 500.011C241.22 499.947 241.738 499.937 242.18 500.033C242.735 500.159 243.128 500.395 243.391 500.697C244.293 501.262 244.781 502.196 244.359 503.587C244.23 504.014 244.016 504.384 243.752 504.698L243.749 504.701Z" fill="#322864"/>
<path d="M262.408 504.541C260.429 505.464 258.803 504.293 257.607 502.667C256.592 504.371 254.731 505.506 252.812 504.433C250.297 503.022 251.148 500.684 252.653 498.818C250.884 498.248 248.921 496.665 249.772 494.758C251.576 495.496 253.355 496.229 255.091 496.942C256.796 497.641 258.466 498.328 260.084 498.993C261.123 499.416 262.14 499.831 263.138 500.241C264.028 501.736 264.291 503.671 262.404 504.544L262.405 504.541L262.408 504.541Z" fill="#322864"/>
<path d="M292.725 514.298C290.985 515.875 287.356 516.976 286.063 514.723C285.282 513.365 285.705 511.67 286.711 510.57C288.449 511.622 290.589 512.941 292.725 514.301L292.725 514.298Z" fill="#322864"/>
<path d="M199.362 484.002C200.134 482.171 198.196 480.772 196.585 480.579C195.145 480.404 193.748 480.919 192.68 481.832C192.786 481.315 192.805 480.773 192.721 480.218C192.534 478.951 191.711 477.463 190.32 477.27C188.964 477.09 187.706 478.191 187.308 479.432C187.068 480.168 187.127 480.905 187.414 481.558C188.223 481.89 189.059 482.235 189.93 482.594C191.26 483.143 192.648 483.717 194.101 484.318C195.257 484.795 196.45 485.288 197.681 485.792C198.43 485.359 199.035 484.765 199.358 484.005L199.359 484.002L199.362 484.002Z" fill="#322864"/>
<path d="M227.801 486.881C226.171 487.372 224.77 486.02 224.793 484.515C226.101 485.053 227.419 485.588 228.73 486.129C228.563 486.478 228.22 486.754 227.801 486.881Z" fill="#CDD9F7"/>
<path d="M239.821 503.088C238.699 502.63 237.571 502.165 236.437 501.697C236.472 501.565 236.54 501.439 236.637 501.332C237.113 500.797 237.934 500.685 238.595 500.88C239.569 501.174 240.202 502.239 239.825 503.088L239.821 503.088Z" fill="#CDD9F7"/>
<path d="M194.105 484.315C192.651 483.717 191.259 483.143 189.933 482.591C190.308 482.071 191.092 481.674 191.645 481.664C192.759 481.649 194.562 482.562 194.255 483.906C194.221 484.048 194.169 484.185 194.108 484.312L194.108 484.315L194.105 484.315Z" fill="#CDD9F7"/>
<path d="M257.983 500.072C256.175 500.216 254.523 498.525 255.093 496.942C256.798 497.642 258.469 498.329 260.087 498.994C259.798 499.725 258.701 500.017 257.983 500.075L257.983 500.072Z" fill="#CDD9F7"/>
<path d="M272.681 515.406C272.547 514.41 271.601 514.002 270.727 513.834C270.314 513.706 269.843 513.64 269.441 513.729C268.84 513.77 268.279 513.986 267.924 514.575C267.91 514.593 267.901 514.612 267.893 514.63C269.474 515.279 270.955 515.888 272.312 516.453C272.577 516.188 272.732 515.829 272.677 515.409L272.678 515.406L272.681 515.406Z" fill="#CDD9F7"/>
</g>
<g clip-path="url(#clip5_13141_4188)">
<path d="M47.7036 204.409C38.8039 199.545 29.6739 195.122 20.8482 190.116C12.4627 185.362 4.94371 179.21 -3.51723 174.589C-7.01075 172.681 -11.0088 171.619 -14.7478 170.12C-23.7846 176.603 -32.7747 183.151 -41.7786 189.677C-46.6377 193.2 -51.5078 196.707 -56.3518 200.25C-58.7266 201.987 -61.0876 203.741 -63.4061 205.552C-64.5399 206.438 -65.6793 207.325 -66.7762 208.257C-67.6249 208.978 -68.442 209.793 -68.7903 210.879C-69.1783 212.092 -68.9672 213.387 -68.6642 214.593C-68.3899 215.689 -68.0376 216.765 -67.6208 217.815C-66.8091 219.863 -65.7451 221.813 -64.4741 223.613C-61.9459 227.19 -58.5977 230.19 -54.7422 232.272C-50.0504 234.807 -44.8348 235.511 -39.6137 236.146C-34.1965 236.805 -28.885 237.853 -23.7064 239.598C-18.6389 241.306 -13.7592 243.577 -9.18665 246.352C-6.89832 247.74 -4.72378 249.281 -2.57804 250.879C-0.583115 252.364 1.51875 253.89 3.94693 254.569C6.35317 255.241 8.64563 254.71 10.7214 253.386C13.0646 251.894 15.2213 250.048 17.4123 248.344C21.952 244.815 26.4395 241.219 30.8736 237.558C39.7294 230.247 48.3713 222.679 56.787 214.863C57.8181 213.905 58.845 212.945 59.8678 211.981C59.9213 211.93 59.9762 211.878 60.0296 211.827C55.9808 209.254 51.9156 206.708 47.7036 204.406V204.409Z" fill="#CDD9F7"/>
<path d="M-15.3241 231.045C-8.08339 225.854 -0.842707 220.665 6.39797 215.475C8.44226 214.01 10.4865 212.545 12.5295 211.08C13.326 210.509 12.587 209.153 11.7795 209.732C4.53879 214.922 -2.70189 220.111 -9.94257 225.301C-11.9869 226.766 -14.0311 228.231 -16.074 229.696C-16.8706 230.267 -16.1316 231.624 -15.3241 231.045Z" fill="#7882F0"/>
<path d="M-0.114103 239.226C7.12658 234.036 14.3673 228.847 21.6079 223.656C23.6522 222.191 25.6965 220.727 27.7394 219.262C28.536 218.691 27.797 217.334 26.9894 217.913C19.7487 223.104 12.5081 228.293 5.26739 233.483C3.2231 234.948 1.17883 236.413 -0.864085 237.878C-1.66068 238.449 -0.92167 239.805 -0.114103 239.226Z" fill="#7882F0"/>
<path d="M116.102 210.421C119.431 207.528 122.647 204.509 125.813 201.441C127.358 199.944 128.906 198.448 130.417 196.918C131.302 196.023 132.651 194.938 132.944 193.666C133.013 193.37 133.004 193.063 132.991 192.759C132.888 190.54 132.766 181.449 132.53 178.478C132.446 177.416 131.432 177.084 131.275 177.039C119.11 173.494 37.0959 154.167 34.0933 153.978C32.7002 153.89 31.3031 153.958 29.9622 154.372C28.6967 154.763 27.5272 155.414 26.4138 156.121C20.946 159.592 9.70173 167.565 4.32846 171.18C-1.03521 174.791 -6.3975 178.401 -11.7612 182.011C-14.4855 183.845 -17.2112 185.679 -19.9356 187.513C-21.0064 188.233 -22.4021 188.902 -23.2111 189.938C-24.0296 190.989 -23.8185 192.456 -23.8075 193.699C-23.7787 196.853 -23.8802 200.04 -23.7074 203.19C-23.5799 205.508 -22.446 207.185 -20.3853 208.232C-18.0654 209.41 61.301 233.862 67.2227 235.74C71.7829 237.185 76.2266 238.675 81.0473 237.309C84.1281 236.435 86.5563 234.283 88.92 232.229C91.5018 229.987 94.2714 228.029 96.9655 225.928C103.44 220.877 109.903 215.808 116.102 210.42V210.421Z" fill="#322864"/>
<path d="M125.617 145.268C125.532 141.965 125.416 138.198 125.036 134.887C124.874 133.47 124.87 131.897 124.398 130.54C123.999 129.389 123.092 128.717 122.081 128.121C116.349 124.741 110.563 121.452 104.804 118.117C93.3295 111.474 81.8563 104.831 70.3817 98.188C67.4928 96.5146 64.604 94.8425 61.7151 93.1704C59.1964 91.711 56.5571 89.9991 53.5777 89.7618C50.7273 89.5355 48.114 90.9867 45.6378 92.2061C42.7338 93.6354 39.8889 95.184 37.074 96.7807C31.4074 99.9945 25.8051 103.324 20.1782 106.609C14.5705 109.883 8.94493 113.126 3.36189 116.442C-1.96202 119.604 -7.22423 122.921 -11.9942 126.885C-14.0042 128.554 -15.7455 130.395 -16.368 133.009C-16.9767 135.569 -15.2382 147.843 -14.5623 149.294C-13.438 151.707 -11.3443 153.491 -9.2548 155.053C-4.23801 158.805 55.1435 193.953 57.8418 195.489C60.3989 196.946 62.1442 197.863 64.8494 197.337C67.486 196.824 69.7743 195.237 72.0243 193.805C74.5662 192.187 120.718 153.929 123.079 151.841C124.09 150.948 124.565 150.413 125.176 149.172C125.787 147.926 125.653 146.593 125.618 145.268H125.617Z" fill="#7882F0"/>
<path d="M125.62 145.268C125.532 141.966 125.417 138.201 125.036 134.887C124.982 134.452 124.949 133.998 124.912 133.544C117.854 139.032 102.535 150.302 98.2202 153.526C93.3103 157.19 88.3758 160.817 83.5002 164.527C78.6192 168.249 73.7957 172.055 69.1286 176.052C67.9919 177.029 66.8608 178.02 65.7447 179.018C65.2155 179.49 64.6355 179.955 64.3202 180.605C64.0213 181.23 64.0172 181.941 64.072 182.611C64.3106 185.755 64.6616 188.944 65.428 191.991C65.6172 192.74 66.7977 194.039 68.3416 192.777C74.0603 188.102 77.802 184.823 83.5057 180.133C89.2094 175.438 94.9488 170.785 100.721 166.18C106.473 161.585 112.257 157.031 118.078 152.527C120.602 150.575 123.12 148.632 125.654 146.696C125.658 146.222 125.632 145.742 125.621 145.269H125.62V145.268Z" fill="white"/>
<path d="M128.296 183.815C128.11 182.989 127.121 182.655 126.49 183.22C124.823 184.719 123.15 186.218 121.483 187.718C112.405 195.878 90.1608 213.742 87.9013 215.778C85.8392 217.626 83.8429 219.61 81.6437 221.304C79.5761 222.896 77.2919 223.658 74.6786 223.55C72.0146 223.439 69.3574 222.793 66.7579 222.241C55.7988 219.905 -20.0055 194.826 -22.712 193.896C-23.0767 193.767 -23.4428 193.643 -23.8075 193.525C-23.8048 193.587 -23.8075 193.643 -23.8048 193.705C-23.7773 196.86 -23.8788 200.045 -23.7033 203.197C-23.6992 203.223 -23.7006 203.253 -23.6965 203.279C-23.5758 203.331 -23.4538 203.377 -23.3318 203.418C-20.4854 204.452 -17.5691 205.326 -14.6926 206.27C-8.8737 208.186 -3.06032 210.101 2.75855 212.021C14.3099 215.823 25.8544 219.639 37.4058 223.426C48.6678 227.119 60.8567 230.175 72.26 233.574C74.972 234.382 77.9706 234.508 80.6908 233.515C83.2396 232.593 85.6308 230.753 87.6463 229.01C92.2723 225.011 122.48 198.939 126.903 195.127C127.857 194.309 128.456 193.155 128.6 191.905C128.858 189.657 128.795 186.028 128.296 183.815Z" fill="white"/>
<path d="M-9.54431 132.565C-1.23144 137.993 7.08142 143.42 15.3957 148.849C23.6729 154.254 31.9501 159.658 40.2273 165.063C44.9219 168.127 49.6151 171.193 54.3097 174.257C55.1433 174.802 55.9454 173.485 55.1159 172.942C46.803 167.514 38.4901 162.086 30.1759 156.657C21.8987 151.253 13.6215 145.848 5.34426 140.444C0.649674 137.38 -4.04353 134.314 -8.73812 131.249C-9.57173 130.705 -10.3738 132.022 -9.54431 132.564V132.565Z" fill="#B9C8F5"/>
<path d="M20.6095 133.537C30.5649 127.13 40.6396 120.91 50.8281 114.882C53.6977 113.184 56.5784 111.503 59.4659 109.835C60.3242 109.34 59.5783 107.988 58.7159 108.486C48.4643 114.406 38.3224 120.517 28.2998 126.819C25.4768 128.594 22.6633 130.385 19.8595 132.189C19.03 132.722 19.7717 134.076 20.6095 133.537Z" fill="#B9C8F5"/>
<path d="M32.1485 139.28C42.1039 132.873 52.1786 126.653 62.3671 120.626C65.2368 118.927 68.1175 117.246 71.0049 115.578C71.8632 115.083 71.1174 113.732 70.255 114.229C60.0034 120.15 49.8615 126.26 39.8389 132.562C37.0159 134.337 34.2024 136.128 31.3985 137.932C30.569 138.466 31.3108 139.819 32.1485 139.28Z" fill="#B9C8F5"/>
</g>
<defs>
<clipPath id="clip0_13141_4188">
<rect width="100.755" height="264.817" fill="white" transform="translate(1033 497.017) rotate(-29.7348)"/>
</clipPath>
<clipPath id="clip1_13141_4188">
<rect width="167" height="211" fill="white" transform="translate(1057 444.344) rotate(-75)"/>
</clipPath>
<clipPath id="clip2_13141_4188">
<rect width="436.623" height="292.015" fill="white" transform="translate(893 -62.3535) rotate(-16.0392)"/>
</clipPath>
<clipPath id="clip3_13141_4188">
<rect width="245.465" height="347.396" fill="white" transform="translate(-101 324.348) rotate(-14.9505)"/>
</clipPath>
<clipPath id="clip4_13141_4188">
<rect width="48.4074" height="137.414" fill="white" transform="translate(168 511.246) rotate(-84.33)"/>
</clipPath>
<clipPath id="clip5_13141_4188">
<rect width="202" height="166" fill="white" transform="translate(-69 89.0293)"/>
</clipPath>
</defs>
</svg>
